<svg width="23" height="27" viewBox="0 0 23 27" fill="none" xmlns="http://www.w3.org/2000/svg">
<path d="M6.85547 1.16406C7.10938 0.605469 7.66797 0.25 8.27734 0.25H14.4219C15.0312 0.25 15.5898 0.605469 15.8438 1.16406L16.25 1.875H21.125C21.9883 1.875 22.75 2.63672 22.75 3.5C22.75 4.41406 21.9883 5.125 21.125 5.125H1.625C0.710938 5.125 0 4.41406 0 3.5C0 2.63672 0.710938 1.875 1.625 1.875H6.5L6.85547 1.16406ZM20.0078 23.9648C19.957 25.2852 18.8906 26.25 17.5703 26.25H5.12891C3.80859 26.25 2.74219 25.2852 2.69141 23.9648L1.57422 6.75H21.125L20.0078 23.9648Z" fill="white"/>
</svg>
