<svg width="24" height="24" viewBox="0 0 24 24" fill="none" xmlns="http://www.w3.org/2000/svg">
<path d="M16.7559 1.99805C18.0137 0.740234 20.0352 0.740234 21.293 1.99805L21.877 2.58203C23.1348 3.83984 23.1348 5.86133 21.877 7.11914L12.9824 16.0137C12.623 16.373 12.1289 16.6875 11.5898 16.8223L7.09766 18.125C6.73828 18.2148 6.33398 18.125 6.06445 17.8105C5.75 17.541 5.66016 17.1367 5.75 16.7773L7.05273 12.2852C7.1875 11.7461 7.50195 11.252 7.86133 10.8926L16.7559 1.99805ZM19.7656 3.52539C19.3613 3.12109 18.6875 3.12109 18.2832 3.52539L16.9355 4.82812L19.0469 6.93945L20.3496 5.5918C20.7539 5.1875 20.7539 4.51367 20.3496 4.10938L19.7656 3.52539ZM9.11914 12.8691L8.35547 15.5195L11.0059 14.7559C11.1855 14.7109 11.3203 14.6211 11.4551 14.4863L17.5195 8.42188L15.4531 6.35547L9.38867 12.4199C9.25391 12.5547 9.16406 12.6895 9.11914 12.8691ZM8.98438 3.75C9.56836 3.75 10.0625 4.24414 10.0625 4.82812C10.0625 5.45703 9.56836 5.90625 8.98438 5.90625H3.95312C2.91992 5.90625 2.15625 6.71484 2.15625 7.70312V19.9219C2.15625 20.9551 2.91992 21.7188 3.95312 21.7188H16.1719C17.1602 21.7188 17.9688 20.9551 17.9688 19.9219V14.8906C17.9688 14.3066 18.418 13.8125 19.0469 13.8125C19.6309 13.8125 20.125 14.3066 20.125 14.8906V19.9219C20.125 22.123 18.3281 23.875 16.1719 23.875H3.95312C1.75195 23.875 0 22.123 0 19.9219V7.70312C0 5.54688 1.75195 3.75 3.95312 3.75H8.98438Z" fill="white"/>
</svg>
