<svg width="19" height="19" viewBox="0 0 19 19" fill="none" xmlns="http://www.w3.org/2000/svg">
<path d="M14.2747 13.1552L17.6654 16.5451L16.5452 17.6653L13.1553 14.2746C11.894 15.2857 10.3251 15.8357 8.7085 15.8334C4.7755 15.8334 1.5835 12.6414 1.5835 8.70837C1.5835 4.77537 4.7755 1.58337 8.7085 1.58337C12.6415 1.58337 15.8335 4.77537 15.8335 8.70837C15.8358 10.325 15.2858 11.8938 14.2747 13.1552ZM12.6866 12.5677C13.6913 11.5345 14.2524 10.1495 14.2502 8.70837C14.2502 5.647 11.7699 3.16671 8.7085 3.16671C5.64712 3.16671 3.16683 5.647 3.16683 8.70837C3.16683 11.7697 5.64712 14.25 8.7085 14.25C10.1497 14.2523 11.5347 13.6912 12.5679 12.6865L12.6866 12.5677Z" fill="black"/>
</svg>
