<svg width="100" height="100" viewBox="0 0 100 100" fill="none" xmlns="http://www.w3.org/2000/svg">
<path d="M52.8571 15.7143C63.0952 15.7143 71.8452 19.3452 79.1071 26.6071C86.369 33.869 90 42.619 90 52.8571C90 63.0952 86.369 71.8452 79.1071 79.1071C71.8452 86.369 63.0952 90 52.8571 90C44.7619 90 37.4405 87.619 30.8929 82.8571C24.3452 78.0952 19.881 71.9643 17.5 64.4643L52.8571 55.7143V15.7143ZM50 10V53.5714L13.3929 62.8571C12.4405 61.1905 11.6667 59.0179 11.0714 56.3393C10.4762 53.6607 10.119 51.4286 10 49.6429V46.9643C10 42.6786 10.7143 38.4524 12.1429 34.2857C13.5714 30.119 15.744 26.1607 18.6607 22.4107C21.5774 18.6607 25.6548 15.6548 30.8929 13.3929C36.131 11.131 42.1429 10 48.9286 10H50Z" fill="black" fill-opacity="0.15"/>
</svg>
