<svg width="15" height="17" viewBox="0 0 15 17" fill="none" xmlns="http://www.w3.org/2000/svg">
<path d="M9.03121 3.84371C9.17769 3.99002 9.37626 4.07219 9.58329 4.07219C9.79032 4.07219 9.98889 3.99002 10.1354 3.84371L10.8854 3.09371V13.7083C10.8854 13.9155 10.9677 14.1142 11.1142 14.2607C11.2607 14.4072 11.4594 14.4895 11.6666 14.4895C11.8738 14.4895 12.0725 14.4072 12.2191 14.2607C12.3656 14.1142 12.4479 13.9155 12.4479 13.7083V3.09371L13.1979 3.84371C13.2694 3.92047 13.3556 3.98204 13.4515 4.02474C13.5473 4.06744 13.6508 4.0904 13.7557 4.09225C13.8606 4.0941 13.9648 4.0748 14.062 4.03551C14.1593 3.99622 14.2477 3.93773 14.3219 3.86355C14.3961 3.78936 14.4545 3.70099 14.4938 3.60371C14.5331 3.50643 14.5524 3.40224 14.5506 3.29734C14.5487 3.19244 14.5258 3.08899 14.4831 2.99315C14.4404 2.89732 14.3788 2.81107 14.302 2.73955L12.2187 0.656213C12.0722 0.509911 11.8737 0.427734 11.6666 0.427734C11.4596 0.427734 11.261 0.509911 11.1145 0.656213L9.03121 2.73955C8.8849 2.88603 8.80273 3.0846 8.80273 3.29163C8.80273 3.49866 8.8849 3.69723 9.03121 3.84371ZM4.11454 13.9062L4.86454 13.1562C4.93606 13.0795 5.02231 13.0179 5.11815 12.9752C5.21398 12.9325 5.31743 12.9095 5.42233 12.9077C5.52723 12.9058 5.63142 12.9251 5.7287 12.9644C5.82598 13.0037 5.91435 13.0622 5.98854 13.1364C6.06272 13.2106 6.12121 13.2989 6.1605 13.3962C6.19979 13.4935 6.21909 13.5977 6.21724 13.7026C6.21539 13.8075 6.19243 13.9109 6.14973 14.0068C6.10703 14.1026 6.04546 14.1889 5.96871 14.2604L3.88537 16.3437C3.73889 16.49 3.54032 16.5722 3.33329 16.5722C3.12626 16.5722 2.92769 16.49 2.78121 16.3437L0.697873 14.2604C0.621116 14.1889 0.559551 14.1026 0.516851 14.0068C0.474151 13.9109 0.451191 13.8075 0.44934 13.7026C0.44749 13.5977 0.466786 13.4935 0.506078 13.3962C0.545371 13.2989 0.603855 13.2106 0.678041 13.1364C0.752228 13.0622 0.840596 13.0037 0.937875 12.9644C1.03515 12.9251 1.13935 12.9058 1.24425 12.9077C1.34915 12.9095 1.4526 12.9325 1.54843 12.9752C1.64427 13.0179 1.73052 13.0795 1.80204 13.1562L2.55204 13.9062V3.29163C2.55204 3.08443 2.63435 2.88572 2.78086 2.7392C2.92738 2.59269 3.12609 2.51038 3.33329 2.51038C3.54049 2.51038 3.7392 2.59269 3.88572 2.7392C4.03223 2.88572 4.11454 3.08443 4.11454 3.29163V13.9062Z" fill="black"/>
</svg>
