<svg width="100" height="100" viewBox="0 0 100 100" fill="none" xmlns="http://www.w3.org/2000/svg">
<path d="M85.3 53.1058C87.7167 53.1058 89.7708 53.9279 91.4625 55.5721C93.1542 57.2163 94 59.2564 94 61.6923C94 64.1282 93.1542 66.2292 91.4625 67.9952C89.7708 69.7612 87.7167 70.6442 85.3 70.6442C81.3125 70.6442 78.5938 68.7564 77.1438 64.9808H67.9C66.45 64.9808 65.5438 64.3109 65.1813 62.9712L62.2813 54.3846L53.2188 85.9904C52.8563 87.3301 51.95 88 50.5 88H50.3188C48.7479 88 47.8417 87.2692 47.6 85.8077L38.3563 29.5385L30.2 62.7885C29.8375 64.25 28.8708 64.9808 27.3 64.9808H7V59.1346H24.9438L36 14.375C36.4833 12.7917 37.45 12 38.9 12C40.5917 12 41.5583 12.8526 41.8 14.5577L51.225 71.9231L59.3813 43.6058C59.7438 42.266 60.65 41.5962 62.1 41.5962C63.55 41.5962 64.4563 42.266 64.8188 43.6058L70.075 59.1346H76.9625C77.5667 57.4295 78.624 55.9984 80.1344 54.8413C81.6448 53.6843 83.3667 53.1058 85.3 53.1058Z" fill="black" fill-opacity="0.15"/>
</svg>
