<svg width="23" height="21" viewBox="0 0 23 21" fill="none" xmlns="http://www.w3.org/2000/svg">
<path d="M21.5625 0.3125C22.3262 0.3125 23 0.986328 23 1.75V17.5625C23 19.1797 21.6973 20.4375 20.125 20.4375H2.875C1.25781 20.4375 0 19.1797 0 17.5625V4.625C0 3.86133 0.628906 3.1875 1.4375 3.1875H2.875V16.8438C2.875 17.248 3.18945 17.5625 3.59375 17.5625C3.95312 17.5625 4.3125 17.248 4.3125 16.8438V1.75C4.3125 0.986328 4.94141 0.3125 5.75 0.3125H21.5625ZM12.2188 17.5625C12.5781 17.5625 12.9375 17.248 12.9375 16.8438C12.9375 16.4844 12.5781 16.125 12.2188 16.125H7.90625C7.50195 16.125 7.1875 16.4844 7.1875 16.8438C7.1875 17.248 7.50195 17.5625 7.90625 17.5625H12.2188ZM12.2188 13.25C12.5781 13.25 12.9375 12.9355 12.9375 12.5312C12.9375 12.1719 12.5781 11.8125 12.2188 11.8125H7.90625C7.50195 11.8125 7.1875 12.1719 7.1875 12.5312C7.1875 12.9355 7.50195 13.25 7.90625 13.25H12.2188ZM19.4062 17.5625C19.7656 17.5625 20.125 17.248 20.125 16.8438C20.125 16.4844 19.7656 16.125 19.4062 16.125H15.0938C14.6895 16.125 14.375 16.4844 14.375 16.8438C14.375 17.248 14.6895 17.5625 15.0938 17.5625H19.4062ZM19.4062 13.25C19.7656 13.25 20.125 12.9355 20.125 12.5312C20.125 12.1719 19.7656 11.8125 19.4062 11.8125H15.0938C14.6895 11.8125 14.375 12.1719 14.375 12.5312C14.375 12.9355 14.6895 13.25 15.0938 13.25H19.4062ZM20.125 8.21875V3.90625C20.125 3.54688 19.7656 3.1875 19.4062 3.1875H7.90625C7.50195 3.1875 7.1875 3.54688 7.1875 3.90625V8.21875C7.1875 8.62305 7.50195 8.9375 7.90625 8.9375H19.4062C19.7656 8.9375 20.125 8.62305 20.125 8.21875Z" fill="white"/>
</svg>
